<svg id="em3B750THck1" xmlns="http://www.w3.org/2000/svg" xmlns:xlink="http://www.w3.org/1999/xlink" viewBox="0 0 202.379 80.952" shape-rendering="geometricPrecision" text-rendering="geometricPrecision"><g transform="translate(-250.17-247.667)"><path d="M291.931,286.525h-10.031c-.69505,0-1.2585-.56345-1.2585-1.2585s.56345-1.2585,1.2585-1.2585h10.026c.69505,0,1.2585.56345,1.2585,1.2585s-.56345,1.2585-1.2585,1.2585m26.3-28.783c-2.84-.748-4.335,2.542-4.335,2.542s-2.542,5.085-4.636,10.467-3.58,8.647-5.075,8.346-1.613-5.107-1.613-5.107l-1.236-13.407c-.2-10.788-3.29-11.064-3.29-11.064-3.263.15-2.542,4.934-2.542,4.934l.647,18.391c0,4.188-1.2,4.188-1.2,4.188-1.4.4-1.8-2.792-1.8-2.792l-4.186-15.152c0,0-2.791-12.36-6.18-11.362s-2.193,4.983-2.193,4.983l3.389,14.556c0,0,2.991,10.565,1.2,11.165s-3.588-3.19-3.588-3.19l-7.178-12.76c0,0-4.187-8.474-8.175-5.982-3.825,2.392,6.579,18.142,6.579,18.142c3.037442,5.036615,5.410156,10.445218,7.059,16.091.187654.471293.640769.783105,1.148.79h11.485c.606798-.001589,1.127676.43152,1.236829,1.028422s-.224738,1.18632-.792829,1.399578h-.434c-.639044-.005038-1.17999.470573-1.256798,1.105005s.335013,1.225391.956798,1.372995c.097929.025731.198747.038838.3.039h11.584c.605733.00164,1.126341-.429281,1.237912-1.024652s-.217686-1.185554-.782912-1.403348c-.144668-.058194-.299068-.088395-.455-.089h-3.343c-.539337-.244421-.834705-.832335-.708858-1.410944s.638723-.99073,1.230858-.989056h6.462c.57769-.201471.925916-.790146.824292-1.393461s-.623479-1.045431-1.235292-1.046539l-1.2-.013c.045-.01.091-.015.136-.021l-2.694-.007-.665-.006c-.018,0-.036,0-.055,0l-7.495-.019c-.695327-.00359-1.25609-.570173-1.2525-1.2655s.570173-1.25609,1.2655-1.2525l5.521.015h.013l10.027.049c.076932-.000528.15363-.008566.229-.024h.023c.054731-.013025.10852-.029729.161-.05.282204-.104597.521249-.300692.679-.557.063841-.104148.114876-.215621.152-.332c1.432636-6.591013,3.205677-13.103403,5.312-19.511s3.589-7.625.747-8.374" transform="translate(-4.662 0)" fill="#6ebe4a"/><path d="M331.079,318.006h-5.512c-.695879,0-1.26.564121-1.26,1.26s.564121,1.26,1.26,1.26h5.512c.695879,0,1.26-.564121,1.26-1.26s-.564121-1.26-1.26-1.26" transform="translate(-22.695-21.532)" fill="#6ebe4a"/><path d="M275.042,329.165h4.286.009h3.38c.646813.00018,1.188528-.489791,1.253067-1.133377s-.369098-1.231365-1.003067-1.359623c-.0823-.016481-.166067-.024523-.25-.024h-16.057c-.083601-.000504-.167034.007538-.249.024h-1.495c-.695603,0-1.2595-.563897-1.2595-1.2595s.563897-1.2595,1.2595-1.2595h10.125v-.008h19.04c.681239-.019205,1.223521-.576991,1.223521-1.2585s-.542282-1.239295-1.223521-1.2585h-19.04v-.028h-3.381c-.014216.009103-.028903.017448-.044.025h-18.567c-.127433.003129-.253743.024685-.375.064-.777.164-2.5.726-2.5,2.492.102473,1.220154.659614,2.357279,1.561,3.186.125.128.254.249.389.366.047.033.093.067.142.1c1.102611.63421,2.324594,1.033253,3.589,1.172.532.075,1.049.124,1.52.155h17.671Z" transform="translate(0-22.633)" fill="#6ebe4a"/><path d="M304.694,330.047c0,.333908.132644.654139.368753.890247s.556339.368753.890247.368753h7.484c.449797,0,.865427-.239964,1.090326-.6295s.224899-.869464,0-1.259-.640529-.6295-1.090326-.6295h-7.484c-.333908,0-.654139.132644-.890247.368753s-.368753.556339-.368753.890247" transform="translate(-16.691-24.832)" fill="#6ebe4a"/><path d="M328.253,328.788h-2.991c-.449797,0-.865427.239964-1.090326.6295s-.224899.869464,0,1.259.640529.6295,1.090326.6295h2.991c.449797,0,.865427-.239964,1.090326-.6295s.224899-.869464,0-1.259-.640529-.6295-1.090326-.6295" transform="translate(-22.601-24.832)" fill="#6ebe4a"/><path d="M304.678,350.517h-6.138c-.458077-.012914-.886995.22409-1.119843.618785s-.232848.884736,0,1.27943.661766.631699,1.119843.618785h6.138c.681239-.019205,1.223521-.576991,1.223521-1.2585s-.542282-1.239295-1.223521-1.2585" transform="translate(-14.421-31.484)" fill="#6ebe4a"/><path d="M286.226,316.589c.155531.145803.345974.249118.553.3.096036.024977.194774.038074.294.039h6.378c.099561-.000854.198638-.013952.295-.039.552493-.130098.948343-.615599.964526-1.182972s-.351347-1.074649-.895526-1.236028c-.117434-.039092-.240237-.059672-.364-.061h-6.378c-.123429.001416-.245888.021994-.363.061-.290311.086217-.539201.275373-.7.532-.021101.032276-.040462.065657-.058.1-.006.013-.015.025-.02.037-.04291.091479-.074477.187861-.094.287-.015155.078785-.023187.158775-.024.239.001189.195257.048472.387474.138.561.068023.136977.160548.260344.273.364" transform="translate(-10.911-20.429)" fill="#6ebe4a"/><path d="M288.22,338.648c.155304-.000821.309155-.029965.454-.086.021-.01.041-.017.062-.026.53629-.245397.82986-.830645.705893-1.407237s-.632134-.989467-1.221893-.992763h-8.647v0h-12.749.013-.6c-.457717-.012909-.886299.223906-1.118965.618289s-.232666.884039,0,1.278422.661248.631198,1.118965.618289h21.983Z" transform="translate(-4.531-27.079)" fill="#6ebe4a"/><path d="M314.215,335.99h-15.331c-.657629.013617-1.193167.532677-1.227325,1.189559s.444656,1.228688,1.097325,1.310441c.043053.006785.086456.011125.13.013h1.493c.039944.00046.079768.004476.119.012.586033.119776,1.006891.635352,1.006891,1.2335s-.420858,1.113724-1.006891,1.2335c-.082356.0161-.166085.024138-.25.024h-15.193c-.029.006-.056.017-.085.025-.607707.165283-.998804.755366-.914277,1.37945s.618499,1.088874,1.248277,1.08655h24.879c.646108-.000282,1.186948-.48997,1.251213-1.132874s-.368945-1.229958-1.002213-1.358126h-.912c-.334152.000799-.654848-.131589-.89113-.36787s-.368669-.556978-.36787-.89113c.001413-.643104.489097-1.180896,1.129-1.245h4.826c.043879-.001831.087617-.006171.131-.013.652798-.081843,1.131587-.653917,1.097159-1.310923s-.570383-1.175908-1.228159-1.189077" transform="translate(-10.369-27.037)" fill="#6ebe4a"/><path d="M350.148,321.26l3.553-8.616l3.6,8.616Zm33.792,1.377c0,2.619-1.6,4.4-4.086,4.4s-3.864-1.555-3.864-4.4v-12.968h-6.44v14.21c-.002759.768458.066544,1.535482.207,2.291-.369808.713258-1.176943,1.08407-1.959.9-.459536-.359058-.818191-.831064-1.041-1.37l-10.882-22.783c-1.287836-2.611278-4.02162-4.189904-6.927-4-1.35756-.045988-2.708212.21232-3.953.756v5.285c.727246-.322897,1.514294-.489165,2.31-.488c1.107875.02673,2.119914.634561,2.664,1.6l-9.06,19.142c-.520052,1.284414-1.884305,2.013054-3.241,1.731v6c4.352.311,7.772-1.155,9.237-4.4l.8-1.867h12.078l.844,2.087c1.127842,2.762764,3.90705,4.484476,6.883,4.264c1.301758.063329,2.598963-.196386,3.776-.756.496003-.274194.964783-.594974,1.4-.958c1.585757,1.198301,3.533304,1.818904,5.52,1.759c2.143321.086609,4.223546-.735966,5.728-2.265v2.041c.090431,1.565298-.485681,3.095775-1.585848,4.2129s-2.621654,1.716579-4.188152,1.6501c-2.510688.037095-4.977826-.657873-7.1-2v6.219c2.242148.957594,4.662436,1.426993,7.1,1.377c6.928,0,12.259-4.663,12.259-11.769v-22.87h-6.479Z" transform="translate(-26.784-15.689)" fill="#fff"/><path d="M455.607,332c-3.2,0-5.417-2.177-5.417-5.819v-1.065c0-3.687,2.22-5.863,5.419-5.863c3.243,0,5.551,2.31,5.551,6.4s-2.311,6.347-5.553,6.347m-21.651-5.818c0,3.642-2.22,5.819-5.417,5.819-3.243,0-5.551-2.266-5.551-6.352s2.309-6.395,5.551-6.395c3.2,0,5.417,2.175,5.417,5.862ZM456.63,313.7c-3.243,0-5.6,1.2-6.8,2.665v-2.175h-6.128v17.4c-.433915.218126-.914433.327272-1.4.318-.516561.039313-1.024476-.149267-1.390218-.516163s-.552722-.875403-.511782-1.391837v-15.81h-6.083v2.175c-1.2-1.465-3.553-2.665-6.8-2.665-6.483,0-11.1,4.753-11.1,11.947s4.62,11.947,11.1,11.947c2.689887.145347,5.301571-.931739,7.107-2.931c1.194916,1.887198,3.321371,2.975517,5.551,2.841c1.205909.058006,2.410021-.146717,3.529-.6v11.523h6.484v-13.191c1.739858,1.622851,4.062697,2.472045,6.439,2.354c6.483,0,11.058-4.75,11.058-11.946s-4.571-11.944-11.055-11.944" transform="translate(-50.89-20.215)" fill="#fff"/><path d="M507.416,323.61h-7.728v-.266c0-2.8,1.377-4.708,3.953-4.708c2.709,0,3.775,2.088,3.775,4.619Zm-3.775-9.9c-6.616,0-10.836,4.53-10.836,11.945c0,7.728,5.639,11.949,12.7,11.949c2.420578.058229,4.821925-.443121,7.017-1.465v-5.818c-1.923627,1.423292-4.270157,2.158035-6.662,2.086-3.641,0-5.952-1.731-6.173-4.618h14.3v-3.154c0-6.4-3.73-10.925-10.347-10.925" transform="translate(-74.274-20.216)" fill="#fff"/><path d="M535.779,326.626c-.511574.032217-1.011774-.160192-1.369879-.526943s-.53853-.871397-.494121-1.382057v-28.29h-6.485v30.333c0,3.508,2.887,5.462,6.219,5.462c1.296567.071769,2.591206-.171855,3.773-.71v-5.329c-.495999.297148-1.064852.450527-1.643.443" transform="translate(-84.873-14.926)" fill="#fff"/><path d="M375.868,289.934c-1.520268,2.242066-4.076976,3.556406-6.785,3.488-5.082,0-8.762-3.1-8.762-9.723s3.351-9.834,8.324-9.834c6.536,0,7.113,5.576,7.113,6.4l-2.857.494c0,0-.164-4.174-4.229-4.174-2.857,0-5.165,2.087-5.165,7.114c0,5.109,2.8,7,5.741,7c1.928283-.117672,3.69337-1.121704,4.78-2.719Z" transform="translate(-33.719-8.019)" fill="#fff"/><path d="M400.385,283.672c0-5.246-2.472-7.087-5.192-7.087-2.746,0-5.219,1.84-5.219,7.087c0,5.163,2.472,7.059,5.219,7.059s5.192-1.9,5.192-7.059m-13.624,0c0-6.785,3.873-9.807,8.432-9.807c4.533,0,8.405,3.022,8.405,9.807s-3.9,9.75-8.405,9.75c-4.532,0-8.432-2.966-8.432-9.75" transform="translate(-41.812-8.019)" fill="#fff"/><path d="M422.381,283.443c2.418,0,4.231-1.154,4.231-3.351c0-2.115-1.429-3.433-3.956-3.433h-3.27v6.785Zm9.751,9.86c-.571681.095108-1.150475.140943-1.73.137-5.466,0-4.231-7.636-8.378-7.636h-2.638v7.526h-3.131v-19.23h6.511c4.477,0,6.976,1.7,6.976,5.906.077711,2.246177-1.365229,4.263668-3.516,4.916c2.226,1.456,2.445,6.043,5.138,6.043h.769Z" transform="translate(-50.841-8.092)" fill="#fff"/><path d="M450.214,284.157c2.8,0,4.229-1.264,4.229-3.654c0-2.279-1.4-3.845-4.34-3.845h-2.993v7.5Zm-6.235,9.174v-19.231h6.373c4.476,0,7.223,2.088,7.223,6.4c0,4.258-2.911,6.18-6.813,6.18h-3.652v6.647Z" transform="translate(-59.328-8.092)" fill="#fff"/><path d="M480.864,283.672c0-5.246-2.471-7.087-5.192-7.087-2.745,0-5.218,1.84-5.218,7.087c0,5.163,2.473,7.059,5.218,7.059s5.192-1.9,5.192-7.059m-13.623,0c0-6.785,3.873-9.807,8.431-9.807c4.534,0,8.406,3.022,8.406,9.807s-3.9,9.75-8.406,9.75c-4.531,0-8.431-2.966-8.431-9.75" transform="translate(-66.448-8.019)" fill="#fff"/></g></svg>
